<?xml version="1.0" encoding="UTF-8" standalone="no"?>
<!-- Created with Inkscape (http://www.inkscape.org/) -->

<svg
   xmlns:dc="http://purl.org/dc/elements/1.1/"
   xmlns:cc="http://creativecommons.org/ns#"
   xmlns:rdf="http://www.w3.org/1999/02/22-rdf-syntax-ns#"
   xmlns:svg="http://www.w3.org/2000/svg"
   xmlns="http://www.w3.org/2000/svg"
   xmlns:sodipodi="http://sodipodi.sourceforge.net/DTD/sodipodi-0.dtd"
   xmlns:inkscape="http://www.inkscape.org/namespaces/inkscape"
   preserveAspectRatio="x200Y200 meet"
   viewBox="0 0 362 70"
   id="svg2"
   version="1.1"
   inkscape:version="0.48.2 r9819"
   sodipodi:docname="planet_ros.svg">
  <defs
     id="defs4" />
  <sodipodi:namedview
     id="base"
     pagecolor="#ffffff"
     bordercolor="#666666"
     borderopacity="1.0"
     inkscape:pageopacity="0.0"
     inkscape:pageshadow="2"
     inkscape:zoom="1.979899"
     inkscape:cx="91.092139"
     inkscape:cy="49.504007"
     inkscape:document-units="px"
     inkscape:current-layer="layer3"
     showgrid="false"
     inkscape:window-width="1366"
     inkscape:window-height="748"
     inkscape:window-x="-3"
     inkscape:window-y="-3"
     inkscape:window-maximized="1"
     showguides="true"
     inkscape:guide-bbox="true"
     fit-margin-top="0"
     fit-margin-left="0"
     fit-margin-right="0"
     fit-margin-bottom="0" />
  <metadata
     id="metadata7">
    <rdf:RDF>
      <cc:Work
         rdf:about="">
        <dc:format>image/svg+xml</dc:format>
        <dc:type
           rdf:resource="http://purl.org/dc/dcmitype/StillImage" />
        <dc:title />
      </cc:Work>
    </rdf:RDF>
  </metadata>
  <g
     inkscape:groupmode="layer"
     id="layer3"
     inkscape:label="Layer"
     style="display:inline"
     transform="translate(-223.98505,-364.45337)">
    <path
       style="fill:none;stroke:#2e3e60;stroke-width:7;stroke-linecap:butt;stroke-linejoin:miter;stroke-miterlimit:4;stroke-opacity:1;stroke-dasharray:none"
       d="m 521.67508,369.79868 c 23.8854,0 24.09557,45.14782 0,45.14782 -22.66701,0 -23.8854,-45.14782 0,-45.14782 z"
       id="path2987"
       inkscape:connector-curvature="0"
       sodipodi:nodetypes="zcz" />
    <path
       style="fill:none;stroke:#2e3e60;stroke-width:7;stroke-linecap:butt;stroke-linejoin:miter;stroke-miterlimit:4;stroke-opacity:1;stroke-dasharray:none"
       d="M 582.34375,376.08093 C 560,355.70146 542.33713,387.93284 569.10715,391.82646 c 26.77002,3.89362 8.39285,37.14286 -16.25,16.25"
       id="path3757"
       inkscape:connector-curvature="0"
       sodipodi:nodetypes="czc" />
    <path
       style="fill:none;stroke:#2e3e60;stroke-width:7;stroke-linecap:butt;stroke-linejoin:miter;stroke-miterlimit:4;stroke-opacity:1;stroke-dasharray:none"
       d="m 460.45759,393.96706 c 9.10941,0 8.56478,0.36369 15.89546,0 15.91965,-0.34558 15.00466,-23.41425 0,-23.41425 -1.55264,0.19554 -8.81284,0 -19.04278,0 0,10.23239 0,33.69666 0,47.62637"
       id="path3757-0"
       inkscape:connector-curvature="0"
       sodipodi:nodetypes="ccccc" />
    <path
       style="fill:#2e3e60;fill-opacity:1;stroke:#2e3e60;stroke-width:1px;stroke-linecap:butt;stroke-linejoin:miter;stroke-opacity:1"
       d="m 472.53571,396.64789 c 0.53572,0.71429 10.85715,21.03129 10.85715,21.03129 l 7.32142,0 -11.17473,-21.76841 z"
       id="path3964"
       inkscape:connector-curvature="0"
       sodipodi:nodetypes="ccccc" />
    <path
       style="fill:#2e3e60;fill-opacity:1;stroke:#2e3e60;stroke-width:1px;stroke-linecap:butt;stroke-linejoin:miter;stroke-opacity:1"
       d="m 265.92266,368.48891 0,48.61359 7.19734,0 0,-52.14913 z"
       id="path3986"
       inkscape:connector-curvature="0"
       sodipodi:nodetypes="ccccc" />
    <path
       style="fill:#2e3e60;fill-opacity:1;stroke:#2e3e60;stroke-width:1px;stroke-linecap:butt;stroke-linejoin:miter;stroke-opacity:1"
       d="m 407.03564,368.80357 0,41.71361 7.19734,0 0,-45.24915 z"
       id="path3986-6"
       inkscape:connector-curvature="0"
       sodipodi:nodetypes="ccccc" />
    <path
       style="fill:#2e3e60;fill-opacity:1;stroke:#2e3e60;stroke-width:1px;stroke-linecap:butt;stroke-linejoin:miter;stroke-opacity:1"
       d="m 232.14568,427.64596 0,-47.61378 -7.19734,0 0,51.14932 z"
       id="path3986-4"
       inkscape:connector-curvature="0"
       sodipodi:nodetypes="ccccc" />
    <path
       style="fill:none;stroke:#2e3e60;stroke-width:7;stroke-linecap:butt;stroke-linejoin:miter;stroke-miterlimit:4;stroke-opacity:1;stroke-dasharray:none;display:inline"
       d="m 391.6204,411.96418 c -9.96552,6.09414 -24.49621,3.28435 -24.49621,-13.98181 0,-17.26616 25.65647,-21.91065 25.65647,0 -12.57667,0 -7.79488,0 -23.2335,0"
       id="path3757-0-9"
       inkscape:connector-curvature="0"
       sodipodi:nodetypes="czcc" />
    <path
       style="fill:none;stroke:#2e3e60;stroke-width:6;stroke-linecap:butt;stroke-linejoin:miter;stroke-miterlimit:4;stroke-opacity:1;stroke-dasharray:none"
       d="m 401.62532,382.83318 c 8.3508,0 16.36684,0 21.93565,0"
       id="path4033"
       inkscape:connector-curvature="0"
       sodipodi:nodetypes="cc" />
    <path
       style="fill:#2e3e60;fill-opacity:1;stroke:#2e3e60;stroke-width:1px;stroke-linecap:butt;stroke-linejoin:miter;stroke-opacity:1"
       d="m 422.5443,415.76062 c 0,-2.47244 0,-1.41136 0,-4.06808 -9.64286,2.36868 -7.67758,-0.80297 -8.56346,-0.71217 -0.89586,0.0918 -6.94959,-0.2477 -6.94959,-0.2477 0,9.79503 13.42961,7.16985 15.51305,5.02791 z"
       id="path4035"
       inkscape:connector-curvature="0"
       sodipodi:nodetypes="ccsccc" />
    <path
       style="fill:none;stroke:#2e3e60;stroke-width:7;stroke-linecap:butt;stroke-linejoin:miter;stroke-miterlimit:4;stroke-opacity:1;stroke-dasharray:none;display:inline"
       d="m 227.48505,408.39091 c 6.07895,4.54569 24.53033,14.69816 24.73429,-8.58629 0.20396,-23.28446 -14.2828,-18.14029 -24.09354,-11.29242"
       id="path3757-0-2"
       inkscape:connector-curvature="0"
       sodipodi:nodetypes="czc" />
    <path
       style="fill:none;stroke:#2e3e60;stroke-width:7;stroke-linecap:butt;stroke-linejoin:miter;stroke-miterlimit:4;stroke-opacity:1;stroke-dasharray:none;display:inline"
       d="m 328.13089,380.17618 c 0,10.23239 0,23.69732 0,37.62703"
       id="path3757-0-0"
       inkscape:connector-curvature="0"
       sodipodi:nodetypes="cc" />
    <path
       style="fill:none;stroke:#2e3e60;stroke-width:7;stroke-linecap:butt;stroke-linejoin:miter;stroke-miterlimit:4;stroke-opacity:1;stroke-dasharray:none;display:inline"
       d="m 327.98078,392.40544 c 0,-11.19694 23.25736,-14.13651 23.25736,0 0,8.08581 -0.12627,11.72584 -0.12627,25.65555"
       id="path3757-0-90"
       inkscape:connector-curvature="0"
       sodipodi:nodetypes="ccc" />
    <path
       style="fill:none;stroke:#2e3e60;stroke-width:7;stroke-linecap:butt;stroke-linejoin:miter;stroke-miterlimit:4;stroke-opacity:1;stroke-dasharray:none;display:inline"
       d="m 288.38662,385.42832 c 5.80838,-3.49453 21.99467,-6.56037 21.8684,6.56599 0,8.08581 -0.12627,11.72584 -0.12627,25.65555"
       id="path3757-0-90-0"
       inkscape:connector-curvature="0"
       sodipodi:nodetypes="ccc" />
    <path
       style="fill:none;stroke:#2e3e60;stroke-width:7;stroke-linecap:butt;stroke-linejoin:miter;stroke-miterlimit:4;stroke-opacity:1;stroke-dasharray:none;display:inline"
       d="m 311.2471,409.04968 c -8.22553,5.80839 -24.6031,9.21558 -24.6031,-2.1565 0,-11.37207 11.75249,-12.57451 23.45727,-6.23172"
       id="path3757-0-2-9"
       inkscape:connector-curvature="0"
       sodipodi:nodetypes="czc" />
  </g>
</svg>
